<?xml version="1.0" standalone="no"?>
<!DOCTYPE svg PUBLIC "-//W3C//DTD SVG 20010904//EN"
 "http://www.w3.org/TR/2001/REC-SVG-20010904/DTD/svg10.dtd">
<svg version="1.0" xmlns="http://www.w3.org/2000/svg"
 width="100.000000pt" height="100.000000pt" viewBox="0 0 100.000000 100.000000"
 preserveAspectRatio="xMidYMid meet">
<metadata>
Created by potrace 1.14, written by Peter Selinger 2001-2017
</metadata>
<g transform="translate(0.000000,100.000000) scale(0.100000,-0.100000)"
fill="#000000" stroke="none">
<path d="M438 937 c-67 -25 -125 -66 -181 -127 -31 -33 -60 -60 -64 -60 -22 0
-113 -76 -128 -106 -19 -41 -22 -106 -5 -149 6 -16 13 -68 14 -115 3 -91 16
-129 61 -175 34 -33 71 -52 120 -60 22 -4 72 -22 111 -42 113 -56 208 -51 315
16 37 23 50 27 56 17 24 -40 86 -36 102 6 11 29 3 55 -21 72 -17 12 -18 15 -3
30 9 8 31 23 49 31 44 21 94 71 111 111 14 34 12 74 -7 133 -6 18 -11 70 -12
115 -1 60 -6 91 -22 121 -24 47 -100 102 -152 110 -20 3 -71 22 -112 42 -85
42 -170 53 -232 30z"/>
<path d="M11 466 c-17 -20 13 -43 34 -26 12 10 13 16 4 26 -6 8 -15 14 -19 14
-4 0 -13 -6 -19 -14z"/>
<path d="M874 235 c-7 -18 3 -35 21 -35 18 0 26 25 12 39 -15 15 -27 14 -33
-4z"/>
</g>
</svg>
