<svg width="24" height="24" viewBox="0 0 24 24" fill="none" xmlns="http://www.w3.org/2000/svg">
<path d="M18.6875 10.6875H24V24H13.3125V18.6875H10.6875V24H0V5.3125H5.3125V0H18.6875V10.6875ZM5.3125 21.3125V18.6875H2.6875V21.3125H5.3125ZM5.3125 16V13.3125H2.6875V16H5.3125ZM5.3125 10.6875V8H2.6875V10.6875H5.3125ZM10.6875 16V13.3125H8V16H10.6875ZM10.6875 10.6875V8H8V10.6875H10.6875ZM10.6875 5.3125V2.6875H8V5.3125H10.6875ZM16 16V13.3125H13.3125V16H16ZM16 10.6875V8H13.3125V10.6875H16ZM16 5.3125V2.6875H13.3125V5.3125H16ZM21.3125 21.3125V18.6875H18.6875V21.3125H21.3125ZM21.3125 16V13.3125H18.6875V16H21.3125Z" fill="#FAB013"/>
</svg>
