<svg width="687" height="668" viewBox="0 0 687 668" fill="none" xmlns="http://www.w3.org/2000/svg">
<g opacity="0.5">
<path d="M431.487 411.159C487.352 514.158 458.946 614.165 437.76 651.294C337.376 815.527 129.25 861.77 0.361928 866.312C-31.2856 867.427 -64.6111 864.441 -89.1969 844.482C-127.672 813.248 -150.586 758.812 -155.347 723.351C-160.368 685.948 -173.624 422.919 -153.162 293.082C-144.877 240.506 -98.8433 131.35 19.0049 115.33C166.315 95.3058 361.656 282.411 431.487 411.159Z" stroke="url(#paint0_linear_40_287)" stroke-width="2"/>
<path d="M111.528 192.286C224.141 160.071 315.548 209.461 347.174 238.183C485.629 371.751 485.569 584.933 462.025 711.719C456.246 742.836 446.108 774.699 421.313 794.369C382.49 825.168 324.394 835.745 288.759 832.71C251.177 829.509 -8.3218 785.467 -130.555 737.369C-180.052 717.892 -276.559 649.314 -266.613 530.815C-254.18 382.691 -29.2394 232.556 111.528 192.286Z" stroke="url(#paint1_linear_40_287)" stroke-width="2"/>
</g>
<defs>
<linearGradient id="paint0_linear_40_287" x1="540.269" y1="286.244" x2="-151.782" y2="612.558" gradientUnits="userSpaceOnUse">
<stop stop-color="#FF370A"/>
<stop offset="1" stop-color="#FAB013"/>
</linearGradient>
<linearGradient id="paint1_linear_40_287" x1="13.2632" y1="59.0476" x2="181.869" y2="805.132" gradientUnits="userSpaceOnUse">
<stop stop-color="#FF370A"/>
<stop offset="1" stop-color="#FAB013"/>
</linearGradient>
</defs>
</svg>
