<svg width="32" height="28" viewBox="0 0 32 28" fill="none" xmlns="http://www.w3.org/2000/svg">
<path d="M30.6875 12.6875C31.375 12.6875 32 13.25 32 14V26C32 26.75 31.375 27.3125 30.6875 27.3125H24C23.25 27.3125 22.6875 26.75 22.6875 26V14C22.6875 13.25 23.25 12.6875 24 12.6875H30.6875ZM30.6875 24.6875V15.3125H24V24.6875H30.6875ZM26.6875 0.6875C28.125 0.6875 29.3125 1.875 29.3125 3.3125V10H26.6875V3.3125H2.6875V19.3125H20V22H17.3125V24.6875H20V27.3125H9.3125V24.6875H12V22H2.6875C1.1875 22 0 20.8125 0 19.3125V3.3125C0 1.875 1.1875 0.6875 2.6875 0.6875H26.6875ZM15.9375 10H20L16.6875 12.375L17.9375 16.25L14.6875 13.8125L11.375 16.25L12.625 12.375L9.3125 10H13.375L14.6875 6L15.9375 10Z" fill="#FAB013"/>
</svg>
