<svg width="24" height="25" viewBox="0 0 24 25" fill="none" xmlns="http://www.w3.org/2000/svg">
<path d="M12.0064 3.97421C14.9472 3.97421 15.2955 3.98711 16.452 4.0387C17.5269 4.08599 18.1073 4.26657 18.4942 4.41705C19.0059 4.61482 19.3756 4.85558 19.7583 5.23823C20.1452 5.62518 20.3817 5.99062 20.5794 6.50225C20.7299 6.8892 20.9105 7.47391 20.9578 8.54446C21.0094 9.7053 21.0223 10.0536 21.0223 12.99C21.0223 15.9308 21.0094 16.2791 20.9578 17.4356C20.9105 18.5105 20.7299 19.0909 20.5794 19.4778C20.3817 19.9895 20.1409 20.3592 19.7583 20.7418C19.3713 21.1288 19.0059 21.3653 18.4942 21.563C18.1073 21.7135 17.5226 21.8941 16.452 21.9414C15.2912 21.993 14.9429 22.0059 12.0064 22.0059C9.06566 22.0059 8.71741 21.993 7.56088 21.9414C6.48603 21.8941 5.90561 21.7135 5.51866 21.563C5.00704 21.3653 4.63729 21.1245 4.25464 20.7418C3.8677 20.3549 3.63123 19.9895 3.43346 19.4778C3.28298 19.0909 3.1024 18.5062 3.05511 17.4356C3.00352 16.2748 2.99062 15.9265 2.99062 12.99C2.99062 10.0493 3.00352 9.701 3.05511 8.54446C3.1024 7.46962 3.28298 6.8892 3.43346 6.50225C3.63123 5.99062 3.872 5.62088 4.25464 5.23823C4.64159 4.85128 5.00704 4.61482 5.51866 4.41705C5.90561 4.26657 6.49033 4.08599 7.56088 4.0387C8.71741 3.98711 9.06566 3.97421 12.0064 3.97421ZM12.0064 1.99219C9.01837 1.99219 8.64432 2.00509 7.47059 2.05668C6.30115 2.10827 5.49717 2.29744 4.80066 2.56831C4.07407 2.85207 3.45925 3.22611 2.84874 3.84093C2.23393 4.45144 1.85988 5.06625 1.57612 5.78855C1.30526 6.48935 1.11608 7.28904 1.06449 8.45848C1.0129 9.63651 1 10.0106 1 12.9986C1 15.9867 1.0129 16.3608 1.06449 17.5345C1.11608 18.7039 1.30526 19.5079 1.57612 20.2044C1.85988 20.931 2.23393 21.5458 2.84874 22.1563C3.45925 22.7669 4.07407 23.1452 4.79637 23.4247C5.49717 23.6955 6.29685 23.8847 7.46629 23.9363C8.64002 23.9879 9.01407 24.0008 12.0021 24.0008C14.9902 24.0008 15.3643 23.9879 16.538 23.9363C17.7074 23.8847 18.5114 23.6955 19.2079 23.4247C19.9302 23.1452 20.545 22.7669 21.1556 22.1563C21.7661 21.5458 22.1444 20.931 22.4239 20.2087C22.6947 19.5079 22.8839 18.7082 22.9355 17.5388C22.9871 16.3651 23 15.991 23 13.0029C23 10.0149 22.9871 9.64081 22.9355 8.46708C22.8839 7.29764 22.6947 6.49365 22.4239 5.79715C22.153 5.06625 21.779 4.45144 21.1642 3.84093C20.5536 3.23041 19.9388 2.85207 19.2165 2.57261C18.5157 2.30174 17.716 2.11257 16.5466 2.06098C15.3686 2.00509 14.9945 1.99219 12.0064 1.99219Z" fill="white"/>
<path d="M12.0064 7.34493C8.88509 7.34493 6.35275 9.87728 6.35275 12.9986C6.35275 16.12 8.88509 18.6523 12.0064 18.6523C15.1278 18.6523 17.6602 16.12 17.6602 12.9986C17.6602 9.87728 15.1278 7.34493 12.0064 7.34493ZM12.0064 16.666C9.98143 16.666 8.33907 15.0237 8.33907 12.9986C8.33907 10.9736 9.98143 9.33125 12.0064 9.33125C14.0315 9.33125 15.6738 10.9736 15.6738 12.9986C15.6738 15.0237 14.0315 16.666 12.0064 16.666Z" fill="white"/>
<path d="M19.2036 7.12138C19.2036 7.85228 18.6103 8.44129 17.8837 8.44129C17.1528 8.44129 16.5638 7.84798 16.5638 7.12138C16.5638 6.39048 17.1571 5.80146 17.8837 5.80146C18.6103 5.80146 19.2036 6.39478 19.2036 7.12138Z" fill="white"/>
</svg>
