<svg width="48" height="48" viewBox="0 0 48 48" fill="none" xmlns="http://www.w3.org/2000/svg">
<circle cx="24" cy="24" r="23.25" stroke="url(#paint0_linear_3_1028)" stroke-width="1.5"/>
<path d="M24 16.9863C22.3184 16.9863 19.6113 18.2168 19.6113 21.498C19.6113 23.3848 21.1289 25.5996 24 27.8965C26.8711 25.5996 28.3887 23.3848 28.3887 21.498C28.3887 18.2168 25.6816 16.9863 24 16.9863ZM24 15.2637C26.8711 15.2637 30.1113 17.3965 30.1113 21.498C30.1113 24.2461 28.1016 27.1172 24 30.1113C19.8984 27.1172 17.8887 24.2461 17.8887 21.498C17.8887 17.3965 21.1289 15.2637 24 15.2637ZM24 19.6113C24.9844 19.6113 25.7637 20.3906 25.7637 21.375C25.7637 22.3594 24.9844 23.1387 24 23.1387C23.0566 23.1387 22.2363 22.3184 22.2363 21.375C22.2363 20.4316 23.0566 19.6113 24 19.6113ZM17.8887 31.0137V32.7363H30.1113V31.0137H17.8887Z" fill="white"/>
<defs>
<linearGradient id="paint0_linear_3_1028" x1="45.12" y1="48" x2="9.29716" y2="10.3662" gradientUnits="userSpaceOnUse">
<stop stop-color="#FF370A"/>
<stop offset="1" stop-color="#FAB013"/>
</linearGradient>
</defs>
</svg>
