<?xml version="1.0" encoding="UTF-8"?>
<svg id="grid" xmlns="http://www.w3.org/2000/svg" xmlns:xlink="http://www.w3.org/1999/xlink" viewBox="0 0 633.3 545.96">
  <defs>
    <style>
      .cls-1 {
        fill: url(#Gradiente_sem_nome_20-2);
      }

      .cls-2 {
        fill: #fff;
      }

      .cls-3 {
        fill: url(#Degradado_sin_nombre_142);
      }

      .cls-4 {
        fill: url(#Gradiente_sem_nome_20-3);
      }

      .cls-5 {
        stroke: #fff;
        stroke-miterlimit: 10;
        stroke-width: 7.52px;
      }

      .cls-5, .cls-6, .cls-7 {
        fill: none;
      }

      .cls-8 {
        fill: url(#Degradado_sin_nombre_142-2);
      }

      .cls-9 {
        fill: url(#Degradado_sin_nombre_142-4);
      }

      .cls-10 {
        fill: url(#Degradado_sin_nombre_142-3);
      }

      .cls-7 {
        clip-path: url(#clippath);
      }

      .cls-11 {
        fill: url(#Gradiente_sem_nome_20);
      }
    </style>
    <linearGradient id="Gradiente_sem_nome_20" data-name="Gradiente sem nome 20" x1="333.72" y1="418.89" x2="369.16" y2="480.27" gradientUnits="userSpaceOnUse">
      <stop offset=".33" stop-color="#fab013"/>
      <stop offset=".43" stop-color="#faa812"/>
      <stop offset=".57" stop-color="#fb9510"/>
      <stop offset=".74" stop-color="#fc740e"/>
      <stop offset=".93" stop-color="#fe480b"/>
      <stop offset=".99" stop-color="#ff370a"/>
    </linearGradient>
    <linearGradient id="Degradado_sin_nombre_142" data-name="Degradado sin nombre 142" x1="240.44" y1="-2.23" x2="380.42" y2="286.58" gradientUnits="userSpaceOnUse">
      <stop offset="0" stop-color="#fab013"/>
      <stop offset=".99" stop-color="#ff370a"/>
    </linearGradient>
    <clipPath id="clippath">
      <path class="cls-6" d="m136.71,269.59c23.1,74.63,116.04,77.56,219.64,45.5,103.6-32.06,168.85-58.78,145.75-133.41C479.01,107.06,388.36-27.2,284.75,4.86c-103.6,32.06-171.13,190.1-148.04,264.73Z"/>
    </clipPath>
    <linearGradient id="Gradiente_sem_nome_20-2" data-name="Gradiente sem nome 20" x1="131.42" y1="-44.34" x2="388.77" y2="313.38" xlink:href="#Gradiente_sem_nome_20"/>
    <linearGradient id="Gradiente_sem_nome_20-3" data-name="Gradiente sem nome 20" x1="629.37" y1="-19.83" x2="323.76" y2="285.78" xlink:href="#Gradiente_sem_nome_20"/>
    <linearGradient id="Degradado_sin_nombre_142-2" data-name="Degradado sin nombre 142" x1="400.61" y1="287.04" x2="438.67" y2="339.94" gradientTransform="translate(128.24 -121.25) rotate(19.05)" xlink:href="#Degradado_sin_nombre_142"/>
    <linearGradient id="Degradado_sin_nombre_142-3" data-name="Degradado sin nombre 142" x1="458.93" y1="283.73" x2="474.48" y2="305.35" xlink:href="#Degradado_sin_nombre_142"/>
    <linearGradient id="Degradado_sin_nombre_142-4" data-name="Degradado sin nombre 142" x1="105.41" y1="189.18" x2="120.96" y2="210.8" xlink:href="#Degradado_sin_nombre_142"/>
  </defs>
  <g>
    <path class="cls-2" d="m0,408.51h16.2v70H0v-70Z"/>
    <path class="cls-2" d="m32.8,408.51h31.8c22.9,0,38.6,13.8,38.6,35s-15.7,35-38.6,35h-31.8v-70Zm31,56.7c13.9,0,23-8.3,23-21.7s-9.1-21.7-23-21.7h-14.8v43.4h14.8Z"/>
    <path class="cls-2" d="m169.6,465.52v13h-54.2v-70h52.9v13h-36.8v15.2h32.5v12.6h-32.5v16.2h38.1Z"/>
    <path class="cls-2" d="m228.6,463.52h-32.5l-6.2,15h-16.6l31.2-70h16l31.3,70h-17l-6.2-15Zm-5.1-12.3l-11.1-26.8-11.1,26.8h22.2Z"/>
    <path class="cls-2" d="m253.59,471.62l5.5-12.2c5.9,4.3,14.7,7.3,23.1,7.3,9.6,0,13.5-3.2,13.5-7.5,0-13.1-40.7-4.1-40.7-30.1,0-11.9,9.6-21.8,29.5-21.8,8.8,0,17.8,2.1,24.3,6.2l-5,12.3c-6.5-3.7-13.2-5.5-19.4-5.5-9.6,0-13.3,3.6-13.3,8,0,12.9,40.7,4,40.7,29.7,0,11.7-9.7,21.7-29.7,21.7-11.1,0-22.3-3.3-28.5-8.1Z"/>
    <path class="cls-11" d="m383.6,463.82h-11.4v14.7h-15.8v-14.7h-37.7v-10.9l33-44.4h17l-30.6,42.1h18.8v-13.1h15.3v13.1h11.4v13.2Z"/>
    <path class="cls-2" d="m493,408.51l-22.9,70h-17.4l-15.4-47.4-15.9,47.4h-17.3l-23-70h16.8l15.8,49.2,16.5-49.2h15l16,49.6,16.3-49.6h15.5Z"/>
    <path class="cls-2" d="m556.2,465.52v13h-54.2v-70h52.9v13h-36.8v15.2h32.5v12.6h-32.5v16.2h38.1Z"/>
    <path class="cls-2" d="m633.3,459.41c0,12.1-9.6,19.1-28,19.1h-36.2v-70h34.2c17.5,0,26.5,7.3,26.5,18.2,0,7-3.6,12.4-9.3,15.4,7.8,2.5,12.8,8.5,12.8,17.3Zm-48.1-38.7v16.5h16.1c7.9,0,12.2-2.8,12.2-8.3s-4.3-8.2-12.2-8.2h-16.1Zm31.8,37c0-5.9-4.5-8.7-12.9-8.7h-18.9v17.3h18.9c8.4,0,12.9-2.6,12.9-8.6Z"/>
  </g>
  <g>
    <g>
      <path class="cls-3" d="m492.28,94.58c-23.1-74.63-116.04-77.56-219.64-45.5-103.6,32.06-168.85,58.78-145.75,133.41,23.1,74.63,113.75,208.89,217.36,176.83,103.6-32.06,171.13-190.1,148.04-264.73Z"/>
      <g class="cls-7">
        <path class="cls-1" d="m136.71,269.59c23.1,74.63,116.04,77.56,219.64,45.5,103.6-32.06,168.85-58.78,145.75-133.41C479.01,107.06,388.36-27.2,284.75,4.86c-103.6,32.06-171.13,190.1-148.04,264.73Z"/>
        <path class="cls-4" d="m329.95-8.14s167.64,246.65-123.58,359.33c0,0,117.62,121.96,274.96,52.96,157.34-69,33.95-374.45-151.38-412.29Z"/>
      </g>
      <circle class="cls-8" cx="425.4" cy="321.5" r="24.44" transform="translate(-81.64 156.47) rotate(-19.05)"/>
      <circle class="cls-10" cx="469.06" cy="297.81" r="9.98"/>
      <circle class="cls-9" cx="115.53" cy="203.26" r="9.98"/>
    </g>
    <path class="cls-5" d="m405.55,145.2c0-53.03-42.99-88.78-96.02-88.78s-96.02,35.75-96.02,88.78c0,35.6,19.38,66.66,48.16,83.24,4.44,2.56,7.08,7.37,7.08,12.49v22.45c0,8.1,6.57,14.67,14.67,14.67h52.2c8.1,0,14.67-6.57,14.67-14.67v-22.45c0-5.12,2.65-9.93,7.08-12.49,28.78-16.58,48.16-47.64,48.16-83.24Z"/>
    <path class="cls-5" d="m341.1,311.21h-63.13c-5.08,0-9.21-4.12-9.21-9.21h0c0-5.08,4.12-9.21,9.21-9.21h63.13c5.09,0,9.21,4.12,9.21,9.21h0c0,5.09-4.12,9.21-9.21,9.21Z"/>
    <path class="cls-5" d="m332.93,337.97h-46.79c-3.77,0-6.82-3.05-6.82-6.82h0c0-3.77,3.05-6.82,6.82-6.82h46.79c3.77,0,6.82,3.05,6.82,6.82h0c0,3.77-3.05,6.82-6.82,6.82Z"/>
    <path class="cls-5" d="m303.09,275.61v-105.36c0-10.7-8.67-19.37-19.37-19.37s-19.37,8.67-19.37,19.37c0,0-2.36,29.19,45.18,28.63,46.52-.55,45.18-28.63,45.18-28.63,0-10.7-8.67-19.37-19.37-19.37s-19.37,8.67-19.37,19.37v105.36"/>
  </g>
  <g>
    <path class="cls-2" d="m115.4,541.75l1.34-2.64c2.31,2.27,6.43,3.93,10.69,3.93,6.06,0,8.7-2.54,8.7-5.74,0-8.88-19.94-3.42-19.94-15.41,0-4.77,3.7-8.88,11.94-8.88,3.66,0,7.45,1.06,10.04,2.87l-1.16,2.73c-2.78-1.8-6.02-2.68-8.88-2.68-5.92,0-8.56,2.64-8.56,5.88,0,8.88,19.94,3.52,19.94,15.31,0,4.77-3.79,8.84-12.08,8.84-4.86,0-9.62-1.71-12.03-4.21Z"/>
    <path class="cls-2" d="m173.57,542.72v2.96h-22.9v-32.39h22.21v2.96h-18.79v11.52h16.75v2.91h-16.75v12.03h19.48Z"/>
    <path class="cls-2" d="m182.27,529.49c0-9.44,7.22-16.47,17.03-16.47s16.98,6.99,16.98,16.47-7.26,16.47-16.98,16.47-17.03-7.03-17.03-16.47Zm30.59,0c0-7.73-5.78-13.42-13.56-13.42s-13.65,5.69-13.65,13.42,5.83,13.42,13.65,13.42,13.56-5.69,13.56-13.42Z"/>
    <path class="cls-2" d="m263.82,537.03h-18.05l-3.89,8.65h-3.56l14.81-32.39h3.38l14.81,32.39h-3.61l-3.89-8.65Zm-1.25-2.78l-7.77-17.4-7.77,17.4h15.55Z"/>
    <path class="cls-2" d="m307.46,513.3v32.39h-2.82l-20.82-26.28v26.28h-3.42v-32.39h2.82l20.87,26.28v-26.28h3.38Z"/>
    <path class="cls-2" d="m342.03,537.03h-18.04l-3.89,8.65h-3.56l14.81-32.39h3.38l14.81,32.39h-3.61l-3.89-8.65Zm-1.25-2.78l-7.77-17.4-7.77,17.4h15.55Z"/>
    <path class="cls-2" d="m358.6,513.3h3.42v29.43h18.14v2.96h-21.56v-32.39Z"/>
    <path class="cls-2" d="m397.25,534.49v11.2h-3.38v-11.2l-12.96-21.19h3.65l11.1,18.19,11.1-18.19h3.42l-12.96,21.19Z"/>
    <path class="cls-2" d="m442.6,542.72v2.96h-26.56v-2.36l21.47-27.07h-21.14v-2.96h25.68v2.36l-21.42,27.07h21.98Z"/>
    <path class="cls-2" d="m475.97,542.72v2.96h-22.9v-32.39h22.21v2.96h-18.79v11.52h16.75v2.91h-16.75v12.03h19.48Z"/>
    <path class="cls-2" d="m509.84,545.69l-7.4-10.41c-.83.09-1.67.14-2.59.14h-8.7v10.27h-3.42v-32.39h12.12c8.24,0,13.23,4.16,13.23,11.1,0,5.09-2.68,8.65-7.4,10.18l7.91,11.1h-3.75Zm-.19-21.28c0-5.18-3.42-8.14-9.9-8.14h-8.61v16.24h8.61c6.48,0,9.9-3.01,9.9-8.1Z"/>
  </g>
</svg>