<svg width="28" height="28" viewBox="0 0 28 28" fill="none" xmlns="http://www.w3.org/2000/svg">
<path d="M14 0.6875C21.375 0.6875 27.3125 6.625 27.3125 14C27.3125 21.375 21.375 27.3125 14 27.3125C6.625 27.3125 0.6875 21.375 0.6875 14C0.6875 6.625 6.625 0.6875 14 0.6875ZM3.3125 14C3.3125 19.4375 7.4375 23.9375 12.625 24.5625V22C11.1875 22 10 20.8125 10 19.3125V18L3.625 11.625C3.4375 12.375 3.3125 13.1875 3.3125 14ZM21.875 21.1875C23.5625 19.3125 24.6875 16.75 24.6875 14C24.6875 9.5625 21.875 5.6875 18 4.125V4.6875C18 6.125 16.8125 7.3125 15.3125 7.3125H12.625V10C12.625 10.75 12.0625 11.3125 11.3125 11.3125H8.625V14H16.625C17.375 14 18 14.625 18 15.3125V19.3125H19.3125C20.5 19.3125 21.5 20.125 21.875 21.1875Z" fill="#FAB013"/>
</svg>
