<svg width="48" height="48" viewBox="0 0 48 48" fill="none" xmlns="http://www.w3.org/2000/svg">
<circle cx="24" cy="24" r="23.25" stroke="url(#paint0_linear_3_1038)" stroke-width="1.5"/>
<path d="M19.2422 17.8887H17.8887C17.9707 19.0371 18.2168 20.1445 18.5859 21.2109L19.6113 20.1445C19.4062 19.4062 19.2832 18.668 19.2422 17.8887ZM27.8555 28.3887L26.7891 29.4141C27.8555 29.7832 28.9629 30.0293 30.1113 30.0703V28.7988C29.373 28.7168 28.5938 28.5938 27.8555 28.3887ZM20.0625 16.125C20.5547 16.125 20.9238 16.5352 20.9238 16.9863C20.9238 18.0938 21.1289 19.1602 21.416 20.1035C21.5391 20.4316 21.457 20.7598 21.2109 21.0059L19.2832 22.9336C20.5547 25.4355 22.5645 27.4453 25.0664 28.7168L26.9941 26.7891C27.1582 26.625 27.3633 26.543 27.6094 26.543C27.6914 26.543 27.7734 26.543 27.8965 26.584C28.8398 26.9121 29.9062 27.0762 31.0137 27.0762C31.4648 27.0762 31.875 27.4453 31.875 27.9375V31.0137C31.875 31.4648 31.4648 31.875 31.0137 31.875C22.7695 31.875 16.125 25.2305 16.125 16.9863C16.125 16.5352 16.5352 16.125 16.9863 16.125H20.0625Z" fill="white"/>
<defs>
<linearGradient id="paint0_linear_3_1038" x1="45.12" y1="48" x2="9.29716" y2="10.3662" gradientUnits="userSpaceOnUse">
<stop stop-color="#FF370A"/>
<stop offset="1" stop-color="#FAB013"/>
</linearGradient>
</defs>
</svg>
