<svg width="18" height="15" viewBox="0 0 18 15" fill="none" xmlns="http://www.w3.org/2000/svg">
<path d="M16.1367 3.62207C16.8398 3.09473 17.4727 2.46191 17.9648 1.72363C17.332 2.00488 16.5938 2.21582 15.8555 2.28613C16.6289 1.8291 17.1914 1.12598 17.4727 0.24707C16.7695 0.668945 15.9609 0.985352 15.1523 1.16113C14.4492 0.422852 13.5 0.000976563 12.4453 0.000976563C10.4062 0.000976563 8.75391 1.65332 8.75391 3.69238C8.75391 3.97363 8.78906 4.25488 8.85938 4.53613C5.80078 4.36035 3.05859 2.88379 1.23047 0.668945C0.914062 1.19629 0.738281 1.8291 0.738281 2.53223C0.738281 3.79785 1.37109 4.92285 2.39062 5.59082C1.79297 5.55566 1.19531 5.41504 0.703125 5.13379V5.16895C0.703125 6.96191 1.96875 8.43848 3.65625 8.79004C3.375 8.86035 3.02344 8.93066 2.70703 8.93066C2.46094 8.93066 2.25 8.89551 2.00391 8.86035C2.46094 10.3369 3.83203 11.3916 5.44922 11.4268C4.18359 12.4111 2.60156 13.0088 0.878906 13.0088C0.5625 13.0088 0.28125 12.9736 0 12.9385C1.61719 13.9932 3.55078 14.5908 5.66016 14.5908C12.4453 14.5908 16.1367 9.00098 16.1367 4.11426C16.1367 3.93848 16.1367 3.79785 16.1367 3.62207Z" fill="white"/>
</svg>
