<svg width="32" height="16" viewBox="0 0 32 16" fill="none" xmlns="http://www.w3.org/2000/svg">
<path d="M5.3125 9.3125C3.875 9.3125 2.6875 8.125 2.6875 6.6875C2.6875 5.1875 3.875 4 5.3125 4C6.8125 4 8 5.1875 8 6.6875C8 8.125 6.8125 9.3125 5.3125 9.3125ZM6.8125 10.8125C6.3125 11.6875 6 12.75 6 13.875V16H0V13.9375C0 12.8125 0.625 11.875 1.625 11.4375C2.75 10.9375 4 10.6875 5.3125 10.6875C5.875 10.6875 6.375 10.75 6.8125 10.8125ZM26.6875 9.3125C25.1875 9.3125 24 8.125 24 6.6875C24 5.1875 25.1875 4 26.6875 4C28.125 4 29.3125 5.1875 29.3125 6.6875C29.3125 8.125 28.125 9.3125 26.6875 9.3125ZM32 13.9375V16H26V13.875C26 12.75 25.6875 11.6875 25.1875 10.8125C25.625 10.75 26.125 10.6875 26.6875 10.6875C28 10.6875 29.25 10.9375 30.375 11.4375C31.375 11.875 32 12.8125 32 13.9375ZM21.625 10.1875C23.0625 10.8125 24 12.25 24 13.875V16H8V13.875C8 12.25 8.9375 10.8125 10.375 10.1875C11.9375 9.5 13.8125 9 16 9C18.1875 9 20.0625 9.5 21.625 10.1875ZM10.75 13.3125H21.25C21.125 13 21.0625 12.8125 20 12.4375C18.75 11.9375 17.375 11.6875 16 11.6875C14.625 11.6875 13.25 11.9375 12 12.4375C10.9375 12.8125 10.875 13 10.75 13.3125ZM16 2.6875C15.25 2.6875 14.6875 3.25 14.6875 4C14.6875 4.75 15.25 5.3125 16 5.3125C16.75 5.3125 17.3125 4.75 17.3125 4C17.3125 3.25 16.75 2.6875 16 2.6875ZM16 0C18.1875 0 20 1.8125 20 4C20 6.1875 18.1875 8 16 8C13.8125 8 12 6.1875 12 4C12 1.8125 13.8125 0 16 0Z" fill="#FAB013"/>
</svg>
