<svg width="48" height="48" viewBox="0 0 48 48" fill="none" xmlns="http://www.w3.org/2000/svg">
<circle cx="24" cy="24" r="23.25" stroke="url(#paint0_linear_3_1043)" stroke-width="1.5"/>
<path fill-rule="evenodd" clip-rule="evenodd" d="M14.2782 23.819C14.2802 18.4049 18.7033 14 24.1391 14C26.7756 14.0007 29.2535 15.0243 31.1146 16.8796C32.9762 18.7356 34.0014 21.2043 34 23.8272C33.9979 29.242 29.5742 33.6468 24.1391 33.6468H24.1352C22.5488 33.6461 20.9879 33.265 19.5895 32.5399L14.8382 33.7811C14.4657 33.8783 14.1276 33.5359 14.2297 33.1647L15.4971 28.5559C14.6971 27.1088 14.2775 25.4828 14.2782 23.819ZM24.139 14.9392C19.2243 14.9392 15.2231 18.9235 15.2213 23.8194C15.2207 25.3852 15.6312 26.9124 16.4116 28.2589L16.51 28.4286L15.3412 32.6787L19.7099 31.5375L19.8742 31.6268C21.1759 32.3339 22.6426 32.707 24.1352 32.7076H24.1391C29.0532 32.7076 33.055 28.7233 33.0569 23.8268C33.0581 21.453 32.1322 19.2231 30.4473 17.5434C28.7632 15.8644 26.5253 14.9398 24.139 14.9392Z" fill="white" stroke="white" stroke-width="0.5"/>
<path d="M23.7836 23.8916L23.7838 23.8918C24.1828 24.2477 24.5102 24.4105 24.7484 24.5171C24.7685 24.493 24.7891 24.4682 24.8097 24.4431C24.9182 24.3114 25.0051 24.2003 25.0395 24.1486L25.5805 24.5087L25.0391 24.1493C25.164 23.9611 25.37 23.7729 25.6783 23.7376C25.9018 23.7119 26.0995 23.7853 26.1679 23.8107C26.1718 23.8121 26.1752 23.8134 26.1782 23.8145L25.9555 24.4251L26.1766 23.8139C26.2931 23.8561 26.5762 23.991 26.8024 24.1002C27.0496 24.2196 27.2992 24.3427 27.386 24.3863C27.3994 24.393 27.419 24.4025 27.4416 24.4135C27.4962 24.44 27.5684 24.4751 27.6142 24.5003C27.6805 24.5367 27.8543 24.6333 27.9707 24.8259C28.0666 24.9848 28.08 25.1549 28.0843 25.2093C28.0914 25.2999 28.0895 25.397 28.0811 25.494C28.0643 25.6895 28.0178 25.925 27.9294 26.173C27.7847 26.5786 27.4268 26.8636 27.1732 27.0262C26.9042 27.1986 26.5704 27.3476 26.2887 27.3899L23.7836 23.8916ZM23.7836 23.8916C23.5046 23.6429 23.2812 23.3487 23.1378 23.1365C23.1591 23.1109 23.1789 23.0869 23.1959 23.0661C23.215 23.0429 23.2306 23.0239 23.241 23.0117C23.3692 22.8618 23.4359 22.7237 23.4779 22.6368C23.484 22.6241 23.4897 22.6124 23.4949 22.602C23.6834 22.2249 23.563 21.8926 23.4809 21.7284C23.4816 21.7297 23.4802 21.7265 23.4765 21.718M23.7836 23.8916L23.4765 21.718M20.8376 24.223C20.8252 24.2052 20.8214 24.1998 20.8214 24.1998L20.8202 24.1982L20.8202 24.1982L20.8376 24.223ZM20.8376 24.223L20.8389 24.2248M20.8376 24.223L20.8389 24.2248M20.8389 24.2248C20.8517 24.2432 20.8693 24.2685 20.8906 24.2986M20.8389 24.2248L20.8906 24.2986M20.8906 24.2986C20.9349 24.3612 20.9953 24.4451 21.0707 24.5445M20.8906 24.2986L21.0707 24.5445M21.0707 24.5445C21.2214 24.7431 21.4325 25.0046 21.6975 25.2871M21.0707 24.5445L21.6975 25.2871M21.6975 25.2871C22.2215 25.8458 22.9839 26.5166 23.9339 26.9267L21.6975 25.2871ZM20.3873 23.5001C20.2081 23.1449 20.0131 22.6397 20.0131 22.0883C20.0131 21.0612 20.5427 20.4979 20.7353 20.293C20.7474 20.2802 20.7582 20.2687 20.7674 20.2587C21.064 19.935 21.4309 19.8392 21.6912 19.8392C21.8041 19.8392 21.9254 19.8406 22.0363 19.8457C22.0383 19.8457 22.0417 19.8457 22.0468 19.8457L22.0483 19.8457C22.0625 19.8456 22.0943 19.8454 22.1302 19.8474C22.2114 19.852 22.3316 19.8683 22.4635 19.9306C22.7364 20.0595 22.8898 20.3007 22.9858 20.5316L20.3873 23.5001ZM20.3873 23.5001C20.5708 23.864 20.7669 24.1268 20.8202 24.1982L20.3873 23.5001ZM23.4765 21.718C23.4688 21.7 23.4509 21.6584 23.4208 21.5865M23.4765 21.718L23.4208 21.5865M23.4208 21.5865C23.3823 21.4945 23.333 21.3751 23.2801 21.2466M23.4208 21.5865L23.2801 21.2466M23.2801 21.2466C23.2463 21.1643 23.2109 21.0781 23.1761 20.9935M23.2801 21.2466L23.1761 20.9935M23.1761 20.9935C23.1034 20.8163 23.0334 20.6459 22.9859 20.5319L23.1761 20.9935ZM24.9935 24.6278C24.9935 24.6279 24.9917 24.6272 24.9879 24.6254C24.9915 24.6268 24.9934 24.6277 24.9935 24.6278Z" stroke="white" stroke-width="1.3"/>
<defs>
<linearGradient id="paint0_linear_3_1043" x1="45.12" y1="48" x2="9.29716" y2="10.3662" gradientUnits="userSpaceOnUse">
<stop stop-color="#FF370A"/>
<stop offset="1" stop-color="#FAB013"/>
</linearGradient>
</defs>
</svg>
